<svg width="496" height="496" viewBox="0 0 496 496" fill="none" xmlns="http://www.w3.org/2000/svg">
<path d="M0 0H100V100H0V0Z" fill="white"/>
<path fill-rule="evenodd" clip-rule="evenodd" d="M100 0H0V100H100V98.5H1.5V1.5H100V0Z" fill="black"/>
<path d="M99 0H199V100H99V0Z" fill="white"/>
<path fill-rule="evenodd" clip-rule="evenodd" d="M199 100V0H99V1.5H197.5V100H199Z" fill="black"/>
<path d="M198 0H298V100H198V0Z" fill="white"/>
<path fill-rule="evenodd" clip-rule="evenodd" d="M298 0H198V100H199.5V1.5H298V0Z" fill="black"/>
<path d="M297 0H397V100H297V0Z" fill="white"/>
<path fill-rule="evenodd" clip-rule="evenodd" d="M397 100V0H297V1.5H395.5V100H397Z" fill="black"/>
<path d="M396 0H496V100H396V0Z" fill="white"/>
<path fill-rule="evenodd" clip-rule="evenodd" d="M496 100V0H396V100H397.5V1.5H494.5V100H496Z" fill="black"/>
<path d="M0 99H100V199H0V99Z" fill="white"/>
<path fill-rule="evenodd" clip-rule="evenodd" d="M100 199V99H0V199H1.5V100.5H98.5V199H100Z" fill="black"/>
<path d="M99 99H199V199H99V99Z" fill="white"/>
<path fill-rule="evenodd" clip-rule="evenodd" d="M197.5 199V99H199V199H197.5ZM100.5 199V99H99V199H100.5Z" fill="black"/>
<path d="M297 99H397V199H297V99Z" fill="white"/>
<path fill-rule="evenodd" clip-rule="evenodd" d="M298.5 99V199H297V99H298.5Z" fill="black"/>
<path d="M198 100H298V200H198V100Z" fill="white"/>
<path fill-rule="evenodd" clip-rule="evenodd" d="M296.5 200V100H298V200H296.5ZM199.5 200V100H198V200H199.5Z" fill="black"/>
<path d="M396 99H496V199H396V99Z" fill="white"/>
<path fill-rule="evenodd" clip-rule="evenodd" d="M494.5 199H496V99H494.5V199Z" fill="black"/>
<path d="M0 198H100V298H0V198Z" fill="white"/>
<path fill-rule="evenodd" clip-rule="evenodd" d="M1.5 198V298H0V198H1.5Z" fill="black"/>
<path d="M99 198H199V298H99V198Z" fill="white"/>
<path fill-rule="evenodd" clip-rule="evenodd" d="M99 298H199V198H197.5V296.5H99V298Z" fill="black"/>
<path d="M198 198H298V298H198V198Z" fill="white"/>
<path fill-rule="evenodd" clip-rule="evenodd" d="M298 198H198V298H199.5V199.5H298V198Z" fill="black"/>
<path d="M297 198H397V298H297V198Z" fill="white"/>
<path fill-rule="evenodd" clip-rule="evenodd" d="M297 298H397V198H395.5V296.5H297V298Z" fill="black"/>
<path d="M396 198H496V298H396V198Z" fill="white"/>
<path fill-rule="evenodd" clip-rule="evenodd" d="M494.5 298V198H496V298H494.5ZM397.5 298V198H396V298H397.5Z" fill="black"/>
<path d="M0 297H100V397H0V297Z" fill="white"/>
<path fill-rule="evenodd" clip-rule="evenodd" d="M0 297V397H100V395.5H1.5V297H0Z" fill="black"/>
<path d="M99 297H199V397H99V297Z" fill="white"/>
<path fill-rule="evenodd" clip-rule="evenodd" d="M199 298.5H99V297H199V298.5ZM199 395.5H99V397H199V395.5Z" fill="black"/>
<path d="M198 297H298V397H198V297Z" fill="white"/>
<path fill-rule="evenodd" clip-rule="evenodd" d="M198 395.5V397H298V395.5H198Z" fill="black"/>
<path d="M297 297H397V397H297V297Z" fill="white"/>
<path fill-rule="evenodd" clip-rule="evenodd" d="M397 397V297H297V298.5H395.5V397H397Z" fill="black"/>
<path d="M396 297H496V397H396V297Z" fill="white"/>
<path fill-rule="evenodd" clip-rule="evenodd" d="M396 297V397H496V297H494.5V395.5H397.5V297H396Z" fill="black"/>
<path d="M0 396H100V496H0V396Z" fill="white"/>
<path fill-rule="evenodd" clip-rule="evenodd" d="M100 396H0V496H100V494.5H1.5V397.5H100V396Z" fill="black"/>
<path d="M99 396H199V496H99V396Z" fill="white"/>
<path fill-rule="evenodd" clip-rule="evenodd" d="M199 397.5H99V396H199V397.5ZM199 494.5H99V496H199V494.5Z" fill="black"/>
<path d="M198 396H298V496H198V396Z" fill="white"/>
<path fill-rule="evenodd" clip-rule="evenodd" d="M298 397.5H198V396H298V397.5ZM298 494.5H198V496H298V494.5Z" fill="black"/>
<path d="M297 396H397V496H297V396Z" fill="white"/>
<path fill-rule="evenodd" clip-rule="evenodd" d="M297 494.5V496H397V494.5H297Z" fill="black"/>
<path d="M396 396H496V496H396V396Z" fill="white"/>
<path fill-rule="evenodd" clip-rule="evenodd" d="M396 496H496V396H396V397.5H494.5V494.5H396V496Z" fill="black"/>
<path d="M445.5 454.239C444.216 454.239 443.122 453.889 442.219 453.19C441.315 452.486 440.625 451.466 440.148 450.131C439.67 448.79 439.432 447.17 439.432 445.273C439.432 443.386 439.67 441.776 440.148 440.44C440.631 439.099 441.324 438.077 442.227 437.372C443.136 436.662 444.227 436.307 445.5 436.307C446.773 436.307 447.861 436.662 448.764 437.372C449.673 438.077 450.366 439.099 450.844 440.44C451.327 441.776 451.568 443.386 451.568 445.273C451.568 447.17 451.33 448.79 450.852 450.131C450.375 451.466 449.685 452.486 448.781 453.19C447.878 453.889 446.784 454.239 445.5 454.239ZM445.5 452.364C446.773 452.364 447.761 451.75 448.466 450.523C449.17 449.295 449.523 447.545 449.523 445.273C449.523 443.761 449.361 442.474 449.037 441.412C448.719 440.349 448.259 439.54 447.656 438.983C447.06 438.426 446.341 438.148 445.5 438.148C444.239 438.148 443.253 438.77 442.543 440.014C441.832 441.253 441.477 443.006 441.477 445.273C441.477 446.784 441.636 448.068 441.955 449.125C442.273 450.182 442.73 450.986 443.327 451.537C443.929 452.088 444.653 452.364 445.5 452.364Z" fill="black"/>
<path d="M346.943 436.545V454H344.83V438.761H344.727L340.466 441.591V439.443L344.83 436.545H346.943Z" fill="black"/>
<path d="M241.807 454V452.466L247.568 446.159C248.244 445.42 248.801 444.778 249.239 444.233C249.676 443.682 250 443.165 250.21 442.682C250.426 442.193 250.534 441.682 250.534 441.148C250.534 440.534 250.386 440.003 250.091 439.554C249.801 439.105 249.403 438.759 248.898 438.514C248.392 438.27 247.824 438.148 247.193 438.148C246.523 438.148 245.938 438.287 245.438 438.565C244.943 438.838 244.56 439.222 244.287 439.716C244.02 440.21 243.886 440.79 243.886 441.455H241.875C241.875 440.432 242.111 439.534 242.582 438.761C243.054 437.989 243.696 437.386 244.509 436.955C245.327 436.523 246.244 436.307 247.261 436.307C248.284 436.307 249.19 436.523 249.98 436.955C250.77 437.386 251.389 437.969 251.838 438.702C252.287 439.435 252.511 440.25 252.511 441.148C252.511 441.79 252.395 442.418 252.162 443.031C251.935 443.639 251.537 444.318 250.969 445.068C250.406 445.812 249.625 446.722 248.625 447.795L244.705 451.989V452.125H252.818V454H241.807Z" fill="black"/>
<path d="M43.3977 450.42V448.682L51.0682 436.545H52.3295V439.239H51.4773L45.6818 448.409V448.545H56.0114V450.42H43.3977ZM51.6136 454V436.545H53.625V454H51.6136Z" fill="black"/>
<path d="M148.705 454.239C147.58 454.239 146.577 454.045 145.696 453.659C144.821 453.273 144.125 452.736 143.608 452.048C143.097 451.355 142.818 450.551 142.773 449.636H144.92C144.966 450.199 145.159 450.685 145.5 451.094C145.841 451.497 146.287 451.81 146.838 452.031C147.389 452.253 148 452.364 148.67 452.364C149.42 452.364 150.085 452.233 150.665 451.972C151.244 451.71 151.699 451.347 152.028 450.881C152.358 450.415 152.523 449.875 152.523 449.261C152.523 448.619 152.364 448.054 152.045 447.565C151.727 447.071 151.261 446.685 150.648 446.406C150.034 446.128 149.284 445.989 148.398 445.989H147V444.114H148.398C149.091 444.114 149.699 443.989 150.222 443.739C150.75 443.489 151.162 443.136 151.457 442.682C151.759 442.227 151.909 441.693 151.909 441.08C151.909 440.489 151.778 439.974 151.517 439.537C151.256 439.099 150.886 438.759 150.409 438.514C149.937 438.27 149.381 438.148 148.739 438.148C148.136 438.148 147.568 438.259 147.034 438.48C146.506 438.696 146.074 439.011 145.739 439.426C145.403 439.835 145.222 440.33 145.193 440.909H143.148C143.182 439.994 143.457 439.193 143.974 438.506C144.491 437.812 145.168 437.273 146.003 436.886C146.844 436.5 147.767 436.307 148.773 436.307C149.852 436.307 150.778 436.526 151.551 436.963C152.324 437.395 152.918 437.966 153.332 438.676C153.747 439.386 153.955 440.153 153.955 440.977C153.955 441.96 153.696 442.798 153.179 443.491C152.668 444.185 151.972 444.665 151.091 444.932V445.068C152.193 445.25 153.054 445.719 153.673 446.474C154.293 447.224 154.602 448.153 154.602 449.261C154.602 450.21 154.344 451.062 153.827 451.818C153.315 452.568 152.616 453.159 151.73 453.591C150.844 454.023 149.835 454.239 148.705 454.239Z" fill="black"/>
<path d="M445.398 58.2386C444.227 58.2386 443.193 58.0313 442.295 57.6165C441.403 57.196 440.707 56.6193 440.207 55.8864C439.707 55.1477 439.46 54.3068 439.466 53.3636C439.46 52.625 439.605 51.9432 439.901 51.3182C440.196 50.6875 440.599 50.1619 441.111 49.7415C441.628 49.3153 442.205 49.0455 442.841 48.9318V48.8295C442.006 48.6136 441.341 48.1449 440.847 47.4233C440.352 46.696 440.108 45.8693 440.114 44.9432C440.108 44.0568 440.332 43.2642 440.787 42.5653C441.241 41.8665 441.866 41.3153 442.662 40.9119C443.463 40.5085 444.375 40.3068 445.398 40.3068C446.409 40.3068 447.312 40.5085 448.108 40.9119C448.903 41.3153 449.528 41.8665 449.983 42.5653C450.443 43.2642 450.676 44.0568 450.682 44.9432C450.676 45.8693 450.423 46.696 449.923 47.4233C449.429 48.1449 448.773 48.6136 447.955 48.8295V48.9318C448.585 49.0455 449.153 49.3153 449.659 49.7415C450.165 50.1619 450.568 50.6875 450.869 51.3182C451.17 51.9432 451.324 52.625 451.33 53.3636C451.324 54.3068 451.068 55.1477 450.562 55.8864C450.062 56.6193 449.366 57.196 448.474 57.6165C447.588 58.0313 446.563 58.2386 445.398 58.2386ZM445.398 56.3636C446.188 56.3636 446.869 56.2358 447.443 55.9801C448.017 55.7244 448.46 55.3636 448.773 54.8977C449.085 54.4318 449.244 53.8864 449.25 53.2614C449.244 52.6023 449.074 52.0199 448.739 51.5142C448.403 51.0085 447.946 50.6108 447.366 50.321C446.793 50.0312 446.136 49.8864 445.398 49.8864C444.653 49.8864 443.989 50.0312 443.403 50.321C442.824 50.6108 442.366 51.0085 442.031 51.5142C441.702 52.0199 441.54 52.6023 441.545 53.2614C441.54 53.8864 441.69 54.4318 441.997 54.8977C442.31 55.3636 442.756 55.7244 443.335 55.9801C443.915 56.2358 444.602 56.3636 445.398 56.3636ZM445.398 48.0795C446.023 48.0795 446.577 47.9545 447.06 47.7045C447.548 47.4545 447.932 47.1051 448.21 46.6562C448.489 46.2074 448.631 45.6818 448.636 45.0795C448.631 44.4886 448.491 43.9744 448.219 43.5369C447.946 43.0937 447.568 42.7528 447.085 42.5142C446.602 42.2699 446.04 42.1477 445.398 42.1477C444.744 42.1477 444.173 42.2699 443.685 42.5142C443.196 42.7528 442.818 43.0937 442.551 43.5369C442.284 43.9744 442.153 44.4886 442.159 45.0795C442.153 45.6818 442.287 46.2074 442.56 46.6562C442.838 47.1051 443.222 47.4545 443.71 47.7045C444.199 47.9545 444.761 48.0795 445.398 48.0795Z" fill="black"/>
<path d="M341.352 58L349.159 42.5568V42.4205H340.159V40.5455H351.341V42.5227L343.568 58H341.352Z" fill="black"/>
<path d="M247.398 58.2386C246.227 58.2386 245.193 58.0313 244.295 57.6165C243.403 57.196 242.707 56.6193 242.207 55.8864C241.707 55.1477 241.46 54.3068 241.466 53.3636C241.46 52.625 241.605 51.9432 241.901 51.3182C242.196 50.6875 242.599 50.1619 243.111 49.7415C243.628 49.3153 244.205 49.0455 244.841 48.9318V48.8295C244.006 48.6136 243.341 48.1449 242.847 47.4233C242.352 46.696 242.108 45.8693 242.114 44.9432C242.108 44.0568 242.332 43.2642 242.787 42.5653C243.241 41.8665 243.866 41.3153 244.662 40.9119C245.463 40.5085 246.375 40.3068 247.398 40.3068C248.409 40.3068 249.313 40.5085 250.108 40.9119C250.903 41.3153 251.528 41.8665 251.983 42.5653C252.443 43.2642 252.676 44.0568 252.682 44.9432C252.676 45.8693 252.423 46.696 251.923 47.4233C251.429 48.1449 250.773 48.6136 249.955 48.8295V48.9318C250.585 49.0455 251.153 49.3153 251.659 49.7415C252.165 50.1619 252.568 50.6875 252.869 51.3182C253.17 51.9432 253.324 52.625 253.33 53.3636C253.324 54.3068 253.068 55.1477 252.562 55.8864C252.062 56.6193 251.366 57.196 250.474 57.6165C249.588 58.0313 248.562 58.2386 247.398 58.2386ZM247.398 56.3636C248.187 56.3636 248.869 56.2358 249.443 55.9801C250.017 55.7244 250.46 55.3636 250.773 54.8977C251.085 54.4318 251.244 53.8864 251.25 53.2614C251.244 52.6023 251.074 52.0199 250.739 51.5142C250.403 51.0085 249.946 50.6108 249.366 50.321C248.793 50.0312 248.136 49.8864 247.398 49.8864C246.653 49.8864 245.989 50.0312 245.403 50.321C244.824 50.6108 244.366 51.0085 244.031 51.5142C243.702 52.0199 243.54 52.6023 243.545 53.2614C243.54 53.8864 243.69 54.4318 243.997 54.8977C244.31 55.3636 244.756 55.7244 245.335 55.9801C245.915 56.2358 246.602 56.3636 247.398 56.3636ZM247.398 48.0795C248.023 48.0795 248.577 47.9545 249.06 47.7045C249.548 47.4545 249.932 47.1051 250.21 46.6562C250.489 46.2074 250.631 45.6818 250.636 45.0795C250.631 44.4886 250.491 43.9744 250.219 43.5369C249.946 43.0937 249.568 42.7528 249.085 42.5142C248.602 42.2699 248.04 42.1477 247.398 42.1477C246.744 42.1477 246.173 42.2699 245.685 42.5142C245.196 42.7528 244.818 43.0937 244.551 43.5369C244.284 43.9744 244.153 44.4886 244.159 45.0795C244.153 45.6818 244.287 46.2074 244.56 46.6562C244.838 47.1051 245.222 47.4545 245.71 47.7045C246.199 47.9545 246.761 48.0795 247.398 48.0795Z" fill="black"/>
<path d="M49.9432 40.5455V58H47.8295V42.7614H47.7273L43.4659 45.5909V43.4432L47.8295 40.5455H49.9432Z" fill="black"/>
<path d="M60.6562 58.2386C59.3722 58.2386 58.2784 57.8892 57.375 57.1903C56.4716 56.4858 55.7813 55.4659 55.304 54.1307C54.8267 52.7898 54.5881 51.1705 54.5881 49.2727C54.5881 47.3864 54.8267 45.7756 55.304 44.4403C55.7869 43.0994 56.4801 42.0767 57.3835 41.3722C58.2926 40.6619 59.3835 40.3068 60.6562 40.3068C61.929 40.3068 63.017 40.6619 63.9205 41.3722C64.8295 42.0767 65.5227 43.0994 66 44.4403C66.483 45.7756 66.7244 47.3864 66.7244 49.2727C66.7244 51.1705 66.4858 52.7898 66.0085 54.1307C65.5312 55.4659 64.8409 56.4858 63.9375 57.1903C63.0341 57.8892 61.9403 58.2386 60.6562 58.2386ZM60.6562 56.3636C61.929 56.3636 62.9176 55.75 63.6222 54.5227C64.3267 53.2955 64.679 51.5455 64.679 49.2727C64.679 47.7614 64.517 46.4744 64.1932 45.4119C63.875 44.3494 63.4148 43.5398 62.8125 42.983C62.2159 42.4261 61.4972 42.1477 60.6562 42.1477C59.3949 42.1477 58.4091 42.7699 57.6989 44.0142C56.9886 45.2528 56.6335 47.0057 56.6335 49.2727C56.6335 50.7841 56.7926 52.0682 57.1108 53.125C57.429 54.1818 57.8864 54.9858 58.483 55.5369C59.0852 56.0881 59.8097 56.3636 60.6562 56.3636Z" fill="black"/>
<path d="M148.364 40.3068C149.08 40.3125 149.795 40.4489 150.511 40.7159C151.227 40.983 151.881 41.4261 152.472 42.0455C153.062 42.6591 153.537 43.4972 153.895 44.5597C154.253 45.6222 154.432 46.9545 154.432 48.5568C154.432 50.108 154.284 51.4858 153.989 52.6903C153.699 53.8892 153.278 54.9006 152.727 55.7244C152.182 56.5483 151.517 57.1733 150.733 57.5994C149.955 58.0256 149.074 58.2386 148.091 58.2386C147.114 58.2386 146.241 58.0455 145.474 57.6591C144.713 57.267 144.088 56.7244 143.599 56.0312C143.116 55.3324 142.807 54.5227 142.67 53.6023H144.75C144.938 54.4034 145.31 55.0653 145.866 55.5881C146.429 56.1051 147.17 56.3636 148.091 56.3636C149.438 56.3636 150.5 55.7756 151.278 54.5994C152.063 53.4233 152.455 51.7614 152.455 49.6136H152.318C152 50.0909 151.622 50.5028 151.185 50.8494C150.747 51.196 150.261 51.4631 149.727 51.6506C149.193 51.8381 148.625 51.9318 148.023 51.9318C147.023 51.9318 146.105 51.6847 145.27 51.1903C144.44 50.6903 143.776 50.0057 143.276 49.1364C142.781 48.2614 142.534 47.2614 142.534 46.1364C142.534 45.0682 142.773 44.0909 143.25 43.2045C143.733 42.3125 144.409 41.6023 145.278 41.0739C146.153 40.5455 147.182 40.2898 148.364 40.3068ZM148.364 42.1818C147.648 42.1818 147.003 42.3608 146.429 42.7188C145.861 43.071 145.409 43.5483 145.074 44.1506C144.744 44.7472 144.58 45.4091 144.58 46.1364C144.58 46.8636 144.739 47.5256 145.057 48.1222C145.381 48.7131 145.821 49.1847 146.378 49.5369C146.94 49.8835 147.58 50.0568 148.295 50.0568C148.835 50.0568 149.338 49.9517 149.804 49.7415C150.27 49.5256 150.676 49.233 151.023 48.8636C151.375 48.4886 151.651 48.0653 151.849 47.5938C152.048 47.1165 152.148 46.6193 152.148 46.1023C152.148 45.4205 151.983 44.7812 151.653 44.1847C151.33 43.5881 150.881 43.1051 150.307 42.7358C149.739 42.3665 149.091 42.1818 148.364 42.1818Z" fill="black"/>
<path d="M440.352 157L448.159 141.557V141.42H439.159V139.545H450.341V141.523L442.568 157H440.352Z" fill="black"/>
<path d="M346.602 157.239C345.886 157.227 345.17 157.091 344.455 156.83C343.739 156.568 343.085 156.128 342.494 155.509C341.903 154.884 341.429 154.04 341.071 152.977C340.713 151.909 340.534 150.568 340.534 148.955C340.534 147.409 340.679 146.04 340.969 144.847C341.259 143.648 341.679 142.639 342.23 141.821C342.781 140.997 343.446 140.372 344.224 139.946C345.009 139.52 345.892 139.307 346.875 139.307C347.852 139.307 348.722 139.503 349.483 139.895C350.25 140.281 350.875 140.821 351.358 141.514C351.841 142.207 352.153 143.006 352.295 143.909H350.216C350.023 143.125 349.648 142.474 349.091 141.957C348.534 141.44 347.795 141.182 346.875 141.182C345.523 141.182 344.457 141.77 343.679 142.946C342.906 144.122 342.517 145.773 342.511 147.898H342.648C342.966 147.415 343.344 147.003 343.781 146.662C344.224 146.315 344.713 146.048 345.247 145.861C345.781 145.673 346.347 145.58 346.943 145.58C347.943 145.58 348.858 145.83 349.688 146.33C350.517 146.824 351.182 147.509 351.682 148.384C352.182 149.253 352.432 150.25 352.432 151.375C352.432 152.455 352.19 153.443 351.707 154.341C351.224 155.233 350.545 155.943 349.67 156.472C348.801 156.994 347.778 157.25 346.602 157.239ZM346.602 155.364C347.318 155.364 347.96 155.185 348.528 154.827C349.102 154.469 349.554 153.989 349.884 153.386C350.219 152.784 350.386 152.114 350.386 151.375C350.386 150.653 350.224 149.997 349.901 149.406C349.582 148.81 349.142 148.335 348.58 147.983C348.023 147.631 347.386 147.455 346.67 147.455C346.131 147.455 345.628 147.563 345.162 147.778C344.696 147.989 344.287 148.278 343.935 148.648C343.588 149.017 343.315 149.44 343.116 149.918C342.918 150.389 342.818 150.886 342.818 151.409C342.818 152.102 342.98 152.75 343.304 153.352C343.634 153.955 344.082 154.44 344.651 154.81C345.224 155.179 345.875 155.364 346.602 155.364Z" fill="black"/>
<path d="M247.364 139.307C248.08 139.313 248.795 139.449 249.511 139.716C250.227 139.983 250.881 140.426 251.472 141.045C252.062 141.659 252.537 142.497 252.895 143.56C253.253 144.622 253.432 145.955 253.432 147.557C253.432 149.108 253.284 150.486 252.989 151.69C252.699 152.889 252.278 153.901 251.727 154.724C251.182 155.548 250.517 156.173 249.733 156.599C248.955 157.026 248.074 157.239 247.091 157.239C246.114 157.239 245.241 157.045 244.474 156.659C243.713 156.267 243.088 155.724 242.599 155.031C242.116 154.332 241.807 153.523 241.67 152.602H243.75C243.938 153.403 244.31 154.065 244.866 154.588C245.429 155.105 246.17 155.364 247.091 155.364C248.438 155.364 249.5 154.776 250.278 153.599C251.063 152.423 251.455 150.761 251.455 148.614H251.318C251 149.091 250.622 149.503 250.185 149.849C249.747 150.196 249.261 150.463 248.727 150.651C248.193 150.838 247.625 150.932 247.023 150.932C246.023 150.932 245.105 150.685 244.27 150.19C243.44 149.69 242.776 149.006 242.276 148.136C241.781 147.261 241.534 146.261 241.534 145.136C241.534 144.068 241.773 143.091 242.25 142.205C242.733 141.312 243.409 140.602 244.278 140.074C245.153 139.545 246.182 139.29 247.364 139.307ZM247.364 141.182C246.648 141.182 246.003 141.361 245.429 141.719C244.861 142.071 244.409 142.548 244.074 143.151C243.744 143.747 243.58 144.409 243.58 145.136C243.58 145.864 243.739 146.526 244.057 147.122C244.381 147.713 244.821 148.185 245.378 148.537C245.94 148.884 246.58 149.057 247.295 149.057C247.835 149.057 248.338 148.952 248.804 148.741C249.27 148.526 249.676 148.233 250.023 147.864C250.375 147.489 250.651 147.065 250.849 146.594C251.048 146.116 251.148 145.619 251.148 145.102C251.148 144.42 250.983 143.781 250.653 143.185C250.33 142.588 249.881 142.105 249.307 141.736C248.739 141.366 248.091 141.182 247.364 141.182Z" fill="black"/>
<path d="M44.3523 157L52.1591 141.557V141.42H43.1591V139.545H54.3409V141.523L46.5682 157H44.3523Z" fill="black"/>
<path d="M148.398 157.239C147.227 157.239 146.193 157.031 145.295 156.616C144.403 156.196 143.707 155.619 143.207 154.886C142.707 154.148 142.46 153.307 142.466 152.364C142.46 151.625 142.605 150.943 142.901 150.318C143.196 149.687 143.599 149.162 144.111 148.741C144.628 148.315 145.205 148.045 145.841 147.932V147.83C145.006 147.614 144.341 147.145 143.847 146.423C143.352 145.696 143.108 144.869 143.114 143.943C143.108 143.057 143.332 142.264 143.787 141.565C144.241 140.866 144.866 140.315 145.662 139.912C146.463 139.509 147.375 139.307 148.398 139.307C149.409 139.307 150.313 139.509 151.108 139.912C151.903 140.315 152.528 140.866 152.983 141.565C153.443 142.264 153.676 143.057 153.682 143.943C153.676 144.869 153.423 145.696 152.923 146.423C152.429 147.145 151.773 147.614 150.955 147.83V147.932C151.585 148.045 152.153 148.315 152.659 148.741C153.165 149.162 153.568 149.687 153.869 150.318C154.17 150.943 154.324 151.625 154.33 152.364C154.324 153.307 154.068 154.148 153.562 154.886C153.062 155.619 152.366 156.196 151.474 156.616C150.588 157.031 149.562 157.239 148.398 157.239ZM148.398 155.364C149.187 155.364 149.869 155.236 150.443 154.98C151.017 154.724 151.46 154.364 151.773 153.898C152.085 153.432 152.244 152.886 152.25 152.261C152.244 151.602 152.074 151.02 151.739 150.514C151.403 150.009 150.946 149.611 150.366 149.321C149.793 149.031 149.136 148.886 148.398 148.886C147.653 148.886 146.989 149.031 146.403 149.321C145.824 149.611 145.366 150.009 145.031 150.514C144.702 151.02 144.54 151.602 144.545 152.261C144.54 152.886 144.69 153.432 144.997 153.898C145.31 154.364 145.756 154.724 146.335 154.98C146.915 155.236 147.602 155.364 148.398 155.364ZM148.398 147.08C149.023 147.08 149.577 146.955 150.06 146.705C150.548 146.455 150.932 146.105 151.21 145.656C151.489 145.207 151.631 144.682 151.636 144.08C151.631 143.489 151.491 142.974 151.219 142.537C150.946 142.094 150.568 141.753 150.085 141.514C149.602 141.27 149.04 141.148 148.398 141.148C147.744 141.148 147.173 141.27 146.685 141.514C146.196 141.753 145.818 142.094 145.551 142.537C145.284 142.974 145.153 143.489 145.159 144.08C145.153 144.682 145.287 145.207 145.56 145.656C145.838 146.105 146.222 146.455 146.71 146.705C147.199 146.955 147.761 147.08 148.398 147.08Z" fill="black"/>
<path d="M445.398 256.239C444.227 256.239 443.193 256.031 442.295 255.616C441.403 255.196 440.707 254.619 440.207 253.886C439.707 253.148 439.46 252.307 439.466 251.364C439.46 250.625 439.605 249.943 439.901 249.318C440.196 248.687 440.599 248.162 441.111 247.741C441.628 247.315 442.205 247.045 442.841 246.932V246.83C442.006 246.614 441.341 246.145 440.847 245.423C440.352 244.696 440.108 243.869 440.114 242.943C440.108 242.057 440.332 241.264 440.787 240.565C441.241 239.866 441.866 239.315 442.662 238.912C443.463 238.509 444.375 238.307 445.398 238.307C446.409 238.307 447.312 238.509 448.108 238.912C448.903 239.315 449.528 239.866 449.983 240.565C450.443 241.264 450.676 242.057 450.682 242.943C450.676 243.869 450.423 244.696 449.923 245.423C449.429 246.145 448.773 246.614 447.955 246.83V246.932C448.585 247.045 449.153 247.315 449.659 247.741C450.165 248.162 450.568 248.687 450.869 249.318C451.17 249.943 451.324 250.625 451.33 251.364C451.324 252.307 451.068 253.148 450.562 253.886C450.062 254.619 449.366 255.196 448.474 255.616C447.588 256.031 446.563 256.239 445.398 256.239ZM445.398 254.364C446.188 254.364 446.869 254.236 447.443 253.98C448.017 253.724 448.46 253.364 448.773 252.898C449.085 252.432 449.244 251.886 449.25 251.261C449.244 250.602 449.074 250.02 448.739 249.514C448.403 249.009 447.946 248.611 447.366 248.321C446.793 248.031 446.136 247.886 445.398 247.886C444.653 247.886 443.989 248.031 443.403 248.321C442.824 248.611 442.366 249.009 442.031 249.514C441.702 250.02 441.54 250.602 441.545 251.261C441.54 251.886 441.69 252.432 441.997 252.898C442.31 253.364 442.756 253.724 443.335 253.98C443.915 254.236 444.602 254.364 445.398 254.364ZM445.398 246.08C446.023 246.08 446.577 245.955 447.06 245.705C447.548 245.455 447.932 245.105 448.21 244.656C448.489 244.207 448.631 243.682 448.636 243.08C448.631 242.489 448.491 241.974 448.219 241.537C447.946 241.094 447.568 240.753 447.085 240.514C446.602 240.27 446.04 240.148 445.398 240.148C444.744 240.148 444.173 240.27 443.685 240.514C443.196 240.753 442.818 241.094 442.551 241.537C442.284 241.974 442.153 242.489 442.159 243.08C442.153 243.682 442.287 244.207 442.56 244.656C442.838 245.105 443.222 245.455 443.71 245.705C444.199 245.955 444.761 246.08 445.398 246.08Z" fill="black"/>
<path d="M346.261 256.239C345.261 256.239 344.361 256.04 343.56 255.642C342.759 255.244 342.116 254.699 341.634 254.006C341.151 253.312 340.886 252.523 340.841 251.636H342.886C342.966 252.426 343.324 253.08 343.96 253.597C344.602 254.108 345.369 254.364 346.261 254.364C346.977 254.364 347.614 254.196 348.17 253.861C348.733 253.526 349.173 253.065 349.491 252.48C349.815 251.889 349.977 251.222 349.977 250.477C349.977 249.716 349.81 249.037 349.474 248.44C349.145 247.838 348.69 247.364 348.111 247.017C347.531 246.67 346.869 246.494 346.125 246.489C345.591 246.483 345.043 246.565 344.48 246.736C343.918 246.901 343.455 247.114 343.091 247.375L341.114 247.136L342.17 238.545H351.239V240.42H343.943L343.33 245.568H343.432C343.79 245.284 344.239 245.048 344.778 244.861C345.318 244.673 345.881 244.58 346.466 244.58C347.534 244.58 348.486 244.835 349.321 245.347C350.162 245.852 350.821 246.545 351.298 247.426C351.781 248.307 352.023 249.312 352.023 250.443C352.023 251.557 351.773 252.551 351.273 253.426C350.778 254.295 350.097 254.983 349.227 255.489C348.358 255.989 347.369 256.239 346.261 256.239Z" fill="black"/>
<path d="M241.398 252.42V250.682L249.068 238.545H250.33V241.239H249.477L243.682 250.409V250.545H254.011V252.42H241.398ZM249.614 256V238.545H251.625V256H249.614Z" fill="black"/>
<path d="M49.6023 256.239C48.8864 256.227 48.1705 256.091 47.4545 255.83C46.7386 255.568 46.0852 255.128 45.4943 254.509C44.9034 253.884 44.429 253.04 44.071 251.977C43.7131 250.909 43.5341 249.568 43.5341 247.955C43.5341 246.409 43.679 245.04 43.9688 243.847C44.2585 242.648 44.679 241.639 45.2301 240.821C45.7813 239.997 46.446 239.372 47.2244 238.946C48.0085 238.52 48.892 238.307 49.875 238.307C50.8523 238.307 51.7216 238.503 52.483 238.895C53.25 239.281 53.875 239.821 54.358 240.514C54.8409 241.207 55.1534 242.006 55.2955 242.909H53.2159C53.0227 242.125 52.6477 241.474 52.0909 240.957C51.5341 240.44 50.7955 240.182 49.875 240.182C48.5227 240.182 47.4574 240.77 46.679 241.946C45.9063 243.122 45.517 244.773 45.5114 246.898H45.6477C45.9659 246.415 46.3438 246.003 46.7812 245.662C47.2244 245.315 47.7131 245.048 48.2472 244.861C48.7812 244.673 49.3466 244.58 49.9432 244.58C50.9432 244.58 51.858 244.83 52.6875 245.33C53.517 245.824 54.1818 246.509 54.6818 247.384C55.1818 248.253 55.4318 249.25 55.4318 250.375C55.4318 251.455 55.1903 252.443 54.7074 253.341C54.2244 254.233 53.5455 254.943 52.6705 255.472C51.8011 255.994 50.7784 256.25 49.6023 256.239ZM49.6023 254.364C50.3182 254.364 50.9602 254.185 51.5284 253.827C52.1023 253.469 52.554 252.989 52.8835 252.386C53.2187 251.784 53.3864 251.114 53.3864 250.375C53.3864 249.653 53.2244 248.997 52.9006 248.406C52.5824 247.81 52.142 247.335 51.5795 246.983C51.0227 246.631 50.3864 246.455 49.6705 246.455C49.1307 246.455 48.6278 246.563 48.1619 246.778C47.696 246.989 47.2869 247.278 46.9347 247.648C46.5881 248.017 46.3153 248.44 46.1165 248.918C45.9176 249.389 45.8182 249.886 45.8182 250.409C45.8182 251.102 45.9801 251.75 46.304 252.352C46.6335 252.955 47.0824 253.44 47.6506 253.81C48.2244 254.179 48.875 254.364 49.6023 254.364Z" fill="black"/>
<path d="M143.352 256L151.159 240.557V240.42H142.159V238.545H153.341V240.523L145.568 256H143.352Z" fill="black"/>
<path d="M445.364 337.307C446.08 337.313 446.795 337.449 447.511 337.716C448.227 337.983 448.881 338.426 449.472 339.045C450.062 339.659 450.537 340.497 450.895 341.56C451.253 342.622 451.432 343.955 451.432 345.557C451.432 347.108 451.284 348.486 450.989 349.69C450.699 350.889 450.278 351.901 449.727 352.724C449.182 353.548 448.517 354.173 447.733 354.599C446.955 355.026 446.074 355.239 445.091 355.239C444.114 355.239 443.241 355.045 442.474 354.659C441.713 354.267 441.088 353.724 440.599 353.031C440.116 352.332 439.807 351.523 439.67 350.602H441.75C441.938 351.403 442.31 352.065 442.866 352.588C443.429 353.105 444.17 353.364 445.091 353.364C446.438 353.364 447.5 352.776 448.278 351.599C449.063 350.423 449.455 348.761 449.455 346.614H449.318C449 347.091 448.622 347.503 448.185 347.849C447.747 348.196 447.261 348.463 446.727 348.651C446.193 348.838 445.625 348.932 445.023 348.932C444.023 348.932 443.105 348.685 442.27 348.19C441.44 347.69 440.776 347.006 440.276 346.136C439.781 345.261 439.534 344.261 439.534 343.136C439.534 342.068 439.773 341.091 440.25 340.205C440.733 339.313 441.409 338.602 442.278 338.074C443.153 337.545 444.182 337.29 445.364 337.307ZM445.364 339.182C444.648 339.182 444.003 339.361 443.429 339.719C442.861 340.071 442.409 340.548 442.074 341.151C441.744 341.747 441.58 342.409 441.58 343.136C441.58 343.864 441.739 344.526 442.057 345.122C442.381 345.713 442.821 346.185 443.378 346.537C443.94 346.884 444.58 347.057 445.295 347.057C445.835 347.057 446.338 346.952 446.804 346.741C447.27 346.526 447.676 346.233 448.023 345.864C448.375 345.489 448.651 345.065 448.849 344.594C449.048 344.116 449.148 343.619 449.148 343.102C449.148 342.42 448.983 341.781 448.653 341.185C448.33 340.588 447.881 340.105 447.307 339.736C446.739 339.366 446.091 339.182 445.364 339.182Z" fill="black"/>
<path d="M340.807 355V353.466L346.568 347.159C347.244 346.42 347.801 345.778 348.239 345.233C348.676 344.682 349 344.165 349.21 343.682C349.426 343.193 349.534 342.682 349.534 342.148C349.534 341.534 349.386 341.003 349.091 340.554C348.801 340.105 348.403 339.759 347.898 339.514C347.392 339.27 346.824 339.148 346.193 339.148C345.523 339.148 344.938 339.287 344.438 339.565C343.943 339.838 343.56 340.222 343.287 340.716C343.02 341.21 342.886 341.79 342.886 342.455H340.875C340.875 341.432 341.111 340.534 341.582 339.761C342.054 338.989 342.696 338.386 343.509 337.955C344.327 337.523 345.244 337.307 346.261 337.307C347.284 337.307 348.19 337.523 348.98 337.955C349.77 338.386 350.389 338.969 350.838 339.702C351.287 340.435 351.511 341.25 351.511 342.148C351.511 342.79 351.395 343.418 351.162 344.031C350.935 344.639 350.537 345.318 349.969 346.068C349.406 346.812 348.625 347.722 347.625 348.795L343.705 352.989V353.125H351.818V355H340.807Z" fill="black"/>
<path d="M247.705 355.239C246.58 355.239 245.577 355.045 244.696 354.659C243.821 354.273 243.125 353.736 242.608 353.048C242.097 352.355 241.818 351.551 241.773 350.636H243.92C243.966 351.199 244.159 351.685 244.5 352.094C244.841 352.497 245.287 352.81 245.838 353.031C246.389 353.253 247 353.364 247.67 353.364C248.42 353.364 249.085 353.233 249.665 352.972C250.244 352.71 250.699 352.347 251.028 351.881C251.358 351.415 251.523 350.875 251.523 350.261C251.523 349.619 251.364 349.054 251.045 348.565C250.727 348.071 250.261 347.685 249.648 347.406C249.034 347.128 248.284 346.989 247.398 346.989H246V345.114H247.398C248.091 345.114 248.699 344.989 249.222 344.739C249.75 344.489 250.162 344.136 250.457 343.682C250.759 343.227 250.909 342.693 250.909 342.08C250.909 341.489 250.778 340.974 250.517 340.537C250.256 340.099 249.886 339.759 249.409 339.514C248.937 339.27 248.381 339.148 247.739 339.148C247.136 339.148 246.568 339.259 246.034 339.48C245.506 339.696 245.074 340.011 244.739 340.426C244.403 340.835 244.222 341.33 244.193 341.909H242.148C242.182 340.994 242.457 340.193 242.974 339.506C243.491 338.812 244.168 338.273 245.003 337.886C245.844 337.5 246.767 337.307 247.773 337.307C248.852 337.307 249.778 337.526 250.551 337.963C251.324 338.395 251.918 338.966 252.332 339.676C252.747 340.386 252.955 341.153 252.955 341.977C252.955 342.96 252.696 343.798 252.179 344.491C251.668 345.185 250.972 345.665 250.091 345.932V346.068C251.193 346.25 252.054 346.719 252.673 347.474C253.293 348.224 253.602 349.153 253.602 350.261C253.602 351.21 253.344 352.062 252.827 352.818C252.315 353.568 251.616 354.159 250.73 354.591C249.844 355.023 248.835 355.239 247.705 355.239Z" fill="black"/>
<path d="M49.2614 355.239C48.2614 355.239 47.3608 355.04 46.5597 354.642C45.7585 354.244 45.1165 353.699 44.6335 353.006C44.1506 352.312 43.8864 351.523 43.8409 350.636H45.8864C45.9659 351.426 46.3239 352.08 46.9602 352.597C47.6023 353.108 48.3693 353.364 49.2614 353.364C49.9773 353.364 50.6136 353.196 51.1705 352.861C51.733 352.526 52.1733 352.065 52.4915 351.48C52.8153 350.889 52.9773 350.222 52.9773 349.477C52.9773 348.716 52.8097 348.037 52.4744 347.44C52.1449 346.838 51.6903 346.364 51.1108 346.017C50.5312 345.67 49.8693 345.494 49.125 345.489C48.5909 345.483 48.0426 345.565 47.4801 345.736C46.9176 345.901 46.4545 346.114 46.0909 346.375L44.1136 346.136L45.1705 337.545H54.2386V339.42H46.9432L46.3295 344.568H46.4318C46.7898 344.284 47.2386 344.048 47.7784 343.861C48.3182 343.673 48.8807 343.58 49.4659 343.58C50.5341 343.58 51.4858 343.835 52.321 344.347C53.1619 344.852 53.821 345.545 54.2983 346.426C54.7812 347.307 55.0227 348.312 55.0227 349.443C55.0227 350.557 54.7727 351.551 54.2727 352.426C53.7784 353.295 53.0966 353.983 52.2273 354.489C51.358 354.989 50.3693 355.239 49.2614 355.239Z" fill="black"/>
<path d="M142.398 351.42V349.682L150.068 337.545H151.33V340.239H150.477L144.682 349.409V349.545H155.011V351.42H142.398ZM150.614 355V337.545H152.625V355H150.614Z" fill="black"/>
</svg>
